<svg width="354" height="114" viewBox="0 0 354 114" fill="none" xmlns="http://www.w3.org/2000/svg">
<path d="M0.246862 81.636C13.8432 81.636 13.8432 15.728 27.4397 15.728C41.036 15.728 41.036 30.7071 54.6325 30.7071C68.2288 30.7071 68.2288 69.6527 81.8252 69.6527C95.4217 69.6527 95.4217 24.7155 109.018 24.7155C122.615 24.7155 122.615 75.6443 136.21 75.6443C149.807 75.6443 149.807 45.6862 163.403 45.6862C177 45.6862 177 33.7029 190.597 33.7029C204.193 33.7029 204.193 90.6234 217.79 90.6234C231.385 90.6234 231.385 111.594 244.982 111.594C258.578 111.594 258.578 0.748954 272.175 0.748954C285.771 0.748954 285.771 60.6653 299.368 60.6653C312.964 60.6653 312.964 96.6151 326.56 96.6151C340.157 96.6151 340.157 18.7239 353.753 18.7239" stroke="#A39EBA" stroke-width="3"/>
</svg>
