<svg width="20" height="20" viewBox="0 0 20 20" fill="none" xmlns="http://www.w3.org/2000/svg">
<path fill-rule="evenodd" clip-rule="evenodd" d="M18.25 10.2025C18.2537 10.0675 18.2537 9.9325 18.25 9.7975L19.6488 8.05C19.7975 7.86393 19.849 7.61827 19.7875 7.38813C19.5578 6.52633 19.2148 5.6988 18.7675 4.92719C18.6486 4.72249 18.4401 4.58592 18.205 4.55875L15.9813 4.31125C15.8888 4.21375 15.795 4.12 15.7 4.03L15.4375 1.80063C15.4101 1.56531 15.2732 1.35677 15.0681 1.23813C14.2966 0.791171 13.469 0.448795 12.6072 0.22C12.377 0.158514 12.1314 0.210013 11.9453 0.35875L10.2025 1.75C10.0675 1.75 9.9325 1.75 9.7975 1.75L8.05 0.354063C7.86393 0.205326 7.61827 0.153827 7.38813 0.215312C6.52633 0.445025 5.6988 0.788016 4.92719 1.23531C4.72249 1.35417 4.58592 1.56268 4.55875 1.79781L4.31125 4.02531C4.21375 4.11844 4.12 4.21219 4.03 4.30656L1.80063 4.5625C1.56531 4.58988 1.35677 4.72682 1.23813 4.93188C0.791263 5.70359 0.448595 6.5311 0.219063 7.39281C0.157836 7.6231 0.209687 7.86878 0.35875 8.05469L1.75 9.7975C1.75 9.9325 1.75 10.0675 1.75 10.2025L0.354063 11.95C0.205326 12.1361 0.153827 12.3817 0.215312 12.6119C0.445025 13.4737 0.788016 14.3012 1.23531 15.0728C1.35417 15.2775 1.56268 15.4141 1.79781 15.4412L4.02156 15.6887C4.11469 15.7862 4.20844 15.88 4.30281 15.97L4.5625 18.1994C4.58988 18.4347 4.72682 18.6432 4.93188 18.7619C5.70359 19.2087 6.5311 19.5514 7.39281 19.7809C7.6231 19.8422 7.86878 19.7903 8.05469 19.6413L9.7975 18.25C9.9325 18.2537 10.0675 18.2537 10.2025 18.25L11.95 19.6488C12.1361 19.7975 12.3817 19.849 12.6119 19.7875C13.4738 19.5582 14.3014 19.2152 15.0728 18.7675C15.2775 18.6486 15.4141 18.4401 15.4412 18.205L15.6887 15.9813C15.7862 15.8888 15.88 15.795 15.97 15.7L18.1994 15.4375C18.4347 15.4101 18.6432 15.2732 18.7619 15.0681C19.2087 14.2964 19.5514 13.4689 19.7809 12.6072C19.8422 12.3769 19.7903 12.1312 19.6413 11.9453L18.25 10.2025ZM10 13.75C7.92893 13.75 6.25 12.0711 6.25 10C6.25 7.92893 7.92893 6.25 10 6.25C12.0711 6.25 13.75 7.92893 13.75 10C13.75 12.0711 12.0711 13.75 10 13.75Z" fill="white"/>
</svg>
